# The Catalogue -- Parcel - 100, a tarped load on a pallet
# One unit is one metre. Y is up. Origin sits on the ground, centred on the footprint.
# UV: front|back|left over right|top|bottom, with a trim strip along the bottom third.
mtllib parcels.mtl
o parcel100
usemtl canvas
v -0.36000 0.00000 -0.30000
v -0.26000 0.00000 -0.30000
v -0.26000 0.00000 -0.18000
v -0.36000 0.00000 -0.18000
v -0.36000 0.07500 -0.30000
v -0.26000 0.07500 -0.30000
v -0.26000 0.07500 -0.18000
v -0.36000 0.07500 -0.18000
v -0.36000 0.00000 -0.06000
v -0.26000 0.00000 -0.06000
v -0.26000 0.00000 0.06000
v -0.36000 0.00000 0.06000
v -0.36000 0.07500 -0.06000
v -0.26000 0.07500 -0.06000
v -0.26000 0.07500 0.06000
v -0.36000 0.07500 0.06000
v -0.36000 0.00000 0.18000
v -0.26000 0.00000 0.18000
v -0.26000 0.00000 0.30000
v -0.36000 0.00000 0.30000
v -0.36000 0.07500 0.18000
v -0.26000 0.07500 0.18000
v -0.26000 0.07500 0.30000
v -0.36000 0.07500 0.30000
v -0.05000 0.00000 -0.30000
v 0.05000 0.00000 -0.30000
v 0.05000 0.00000 -0.18000
v -0.05000 0.00000 -0.18000
v -0.05000 0.07500 -0.30000
v 0.05000 0.07500 -0.30000
v 0.05000 0.07500 -0.18000
v -0.05000 0.07500 -0.18000
v -0.05000 0.00000 -0.06000
v 0.05000 0.00000 -0.06000
v 0.05000 0.00000 0.06000
v -0.05000 0.00000 0.06000
v -0.05000 0.07500 -0.06000
v 0.05000 0.07500 -0.06000
v 0.05000 0.07500 0.06000
v -0.05000 0.07500 0.06000
v -0.05000 0.00000 0.18000
v 0.05000 0.00000 0.18000
v 0.05000 0.00000 0.30000
v -0.05000 0.00000 0.30000
v -0.05000 0.07500 0.18000
v 0.05000 0.07500 0.18000
v 0.05000 0.07500 0.30000
v -0.05000 0.07500 0.30000
v 0.26000 0.00000 -0.30000
v 0.36000 0.00000 -0.30000
v 0.36000 0.00000 -0.18000
v 0.26000 0.00000 -0.18000
v 0.26000 0.07500 -0.30000
v 0.36000 0.07500 -0.30000
v 0.36000 0.07500 -0.18000
v 0.26000 0.07500 -0.18000
v 0.26000 0.00000 -0.06000
v 0.36000 0.00000 -0.06000
v 0.36000 0.00000 0.06000
v 0.26000 0.00000 0.06000
v 0.26000 0.07500 -0.06000
v 0.36000 0.07500 -0.06000
v 0.36000 0.07500 0.06000
v 0.26000 0.07500 0.06000
v 0.26000 0.00000 0.18000
v 0.36000 0.00000 0.18000
v 0.36000 0.00000 0.30000
v 0.26000 0.00000 0.30000
v 0.26000 0.07500 0.18000
v 0.36000 0.07500 0.18000
v 0.36000 0.07500 0.30000
v 0.26000 0.07500 0.30000
v -0.40000 0.07500 -0.30000
v -0.27000 0.07500 -0.30000
v -0.27000 0.07500 0.30000
v -0.40000 0.07500 0.30000
v -0.40000 0.09700 -0.30000
v -0.27000 0.09700 -0.30000
v -0.27000 0.09700 0.30000
v -0.40000 0.09700 0.30000
v -0.23250 0.07500 -0.30000
v -0.10250 0.07500 -0.30000
v -0.10250 0.07500 0.30000
v -0.23250 0.07500 0.30000
v -0.23250 0.09700 -0.30000
v -0.10250 0.09700 -0.30000
v -0.10250 0.09700 0.30000
v -0.23250 0.09700 0.30000
v -0.06500 0.07500 -0.30000
v 0.06500 0.07500 -0.30000
v 0.06500 0.07500 0.30000
v -0.06500 0.07500 0.30000
v -0.06500 0.09700 -0.30000
v 0.06500 0.09700 -0.30000
v 0.06500 0.09700 0.30000
v -0.06500 0.09700 0.30000
v 0.10250 0.07500 -0.30000
v 0.23250 0.07500 -0.30000
v 0.23250 0.07500 0.30000
v 0.10250 0.07500 0.30000
v 0.10250 0.09700 -0.30000
v 0.23250 0.09700 -0.30000
v 0.23250 0.09700 0.30000
v 0.10250 0.09700 0.30000
v 0.27000 0.07500 -0.30000
v 0.40000 0.07500 -0.30000
v 0.40000 0.07500 0.30000
v 0.27000 0.07500 0.30000
v 0.27000 0.09700 -0.30000
v 0.40000 0.09700 -0.30000
v 0.40000 0.09700 0.30000
v 0.27000 0.09700 0.30000
v -0.36000 0.09700 -0.26000
v 0.36000 0.09700 -0.26000
v 0.36000 0.09700 0.26000
v -0.36000 0.09700 0.26000
v -0.36000 0.55700 -0.26000
v 0.36000 0.55700 -0.26000
v 0.36000 0.55700 0.26000
v -0.36000 0.55700 0.26000
v -0.21000 0.09300 -0.26400
v -0.15000 0.09300 -0.26400
v -0.15000 0.09300 0.26400
v -0.21000 0.09300 0.26400
v -0.21000 0.56100 -0.26400
v -0.15000 0.56100 -0.26400
v -0.15000 0.56100 0.26400
v -0.21000 0.56100 0.26400
v 0.15000 0.09300 -0.26400
v 0.21000 0.09300 -0.26400
v 0.21000 0.09300 0.26400
v 0.15000 0.09300 0.26400
v 0.15000 0.56100 -0.26400
v 0.21000 0.56100 -0.26400
v 0.21000 0.56100 0.26400
v 0.15000 0.56100 0.26400
vt 0.50400 0.00400
vt 0.99600 0.00400
vt 0.99600 0.32600
vt 0.50400 0.32600
vt 0.50400 0.00400
vt 0.99600 0.00400
vt 0.99600 0.32600
vt 0.50400 0.32600
vt 0.50400 0.00400
vt 0.99600 0.00400
vt 0.99600 0.32600
vt 0.50400 0.32600
vt 0.50400 0.00400
vt 0.99600 0.00400
vt 0.99600 0.32600
vt 0.50400 0.32600
vt 0.50400 0.00400
vt 0.99600 0.00400
vt 0.99600 0.32600
vt 0.50400 0.32600
vt 0.50400 0.00400
vt 0.99600 0.00400
vt 0.99600 0.32600
vt 0.50400 0.32600
vt 0.50400 0.00400
vt 0.99600 0.00400
vt 0.99600 0.32600
vt 0.50400 0.32600
vt 0.50400 0.00400
vt 0.99600 0.00400
vt 0.99600 0.32600
vt 0.50400 0.32600
vt 0.50400 0.00400
vt 0.99600 0.00400
vt 0.99600 0.32600
vt 0.50400 0.32600
vt 0.50400 0.00400
vt 0.99600 0.00400
vt 0.99600 0.32600
vt 0.50400 0.32600
vt 0.50400 0.00400
vt 0.99600 0.00400
vt 0.99600 0.32600
vt 0.50400 0.32600
vt 0.50400 0.00400
vt 0.99600 0.00400
vt 0.99600 0.32600
vt 0.50400 0.32600
vt 0.50400 0.00400
vt 0.99600 0.00400
vt 0.99600 0.32600
vt 0.50400 0.32600
vt 0.50400 0.00400
vt 0.99600 0.00400
vt 0.99600 0.32600
vt 0.50400 0.32600
vt 0.50400 0.00400
vt 0.99600 0.00400
vt 0.99600 0.32600
vt 0.50400 0.32600
vt 0.50400 0.00400
vt 0.99600 0.00400
vt 0.99600 0.32600
vt 0.50400 0.32600
vt 0.50400 0.00400
vt 0.99600 0.00400
vt 0.99600 0.32600
vt 0.50400 0.32600
vt 0.50400 0.00400
vt 0.99600 0.00400
vt 0.99600 0.32600
vt 0.50400 0.32600
vt 0.50400 0.00400
vt 0.99600 0.00400
vt 0.99600 0.32600
vt 0.50400 0.32600
vt 0.50400 0.00400
vt 0.99600 0.00400
vt 0.99600 0.32600
vt 0.50400 0.32600
vt 0.50400 0.00400
vt 0.99600 0.00400
vt 0.99600 0.32600
vt 0.50400 0.32600
vt 0.50400 0.00400
vt 0.99600 0.00400
vt 0.99600 0.32600
vt 0.50400 0.32600
vt 0.50400 0.00400
vt 0.99600 0.00400
vt 0.99600 0.32600
vt 0.50400 0.32600
vt 0.50400 0.00400
vt 0.99600 0.00400
vt 0.99600 0.32600
vt 0.50400 0.32600
vt 0.50400 0.00400
vt 0.99600 0.00400
vt 0.99600 0.32600
vt 0.50400 0.32600
vt 0.50400 0.00400
vt 0.99600 0.00400
vt 0.99600 0.32600
vt 0.50400 0.32600
vt 0.50400 0.00400
vt 0.99600 0.00400
vt 0.99600 0.32600
vt 0.50400 0.32600
vt 0.50400 0.00400
vt 0.99600 0.00400
vt 0.99600 0.32600
vt 0.50400 0.32600
vt 0.50400 0.00400
vt 0.99600 0.00400
vt 0.99600 0.32600
vt 0.50400 0.32600
vt 0.50400 0.00400
vt 0.99600 0.00400
vt 0.99600 0.32600
vt 0.50400 0.32600
vt 0.50400 0.00400
vt 0.99600 0.00400
vt 0.99600 0.32600
vt 0.50400 0.32600
vt 0.50400 0.00400
vt 0.99600 0.00400
vt 0.99600 0.32600
vt 0.50400 0.32600
vt 0.50400 0.00400
vt 0.99600 0.00400
vt 0.99600 0.32600
vt 0.50400 0.32600
vt 0.50400 0.00400
vt 0.99600 0.00400
vt 0.99600 0.32600
vt 0.50400 0.32600
vt 0.50400 0.00400
vt 0.99600 0.00400
vt 0.99600 0.32600
vt 0.50400 0.32600
vt 0.50400 0.00400
vt 0.99600 0.00400
vt 0.99600 0.32600
vt 0.50400 0.32600
vt 0.50400 0.00400
vt 0.99600 0.00400
vt 0.99600 0.32600
vt 0.50400 0.32600
vt 0.50400 0.00400
vt 0.99600 0.00400
vt 0.99600 0.32600
vt 0.50400 0.32600
vt 0.50400 0.00400
vt 0.99600 0.00400
vt 0.99600 0.32600
vt 0.50400 0.32600
vt 0.50400 0.00400
vt 0.99600 0.00400
vt 0.99600 0.32600
vt 0.50400 0.32600
vt 0.50400 0.00400
vt 0.99600 0.00400
vt 0.99600 0.32600
vt 0.50400 0.32600
vt 0.50400 0.00400
vt 0.99600 0.00400
vt 0.99600 0.32600
vt 0.50400 0.32600
vt 0.50400 0.00400
vt 0.99600 0.00400
vt 0.99600 0.32600
vt 0.50400 0.32600
vt 0.50400 0.00400
vt 0.99600 0.00400
vt 0.99600 0.32600
vt 0.50400 0.32600
vt 0.50400 0.00400
vt 0.99600 0.00400
vt 0.99600 0.32600
vt 0.50400 0.32600
vt 0.50400 0.00400
vt 0.99600 0.00400
vt 0.99600 0.32600
vt 0.50400 0.32600
vt 0.50400 0.00400
vt 0.99600 0.00400
vt 0.99600 0.32600
vt 0.50400 0.32600
vt 0.50400 0.00400
vt 0.99600 0.00400
vt 0.99600 0.32600
vt 0.50400 0.32600
vt 0.50400 0.00400
vt 0.99600 0.00400
vt 0.99600 0.32600
vt 0.50400 0.32600
vt 0.50400 0.00400
vt 0.99600 0.00400
vt 0.99600 0.32600
vt 0.50400 0.32600
vt 0.50400 0.00400
vt 0.99600 0.00400
vt 0.99600 0.32600
vt 0.50400 0.32600
vt 0.50400 0.00400
vt 0.99600 0.00400
vt 0.99600 0.32600
vt 0.50400 0.32600
vt 0.50400 0.00400
vt 0.99600 0.00400
vt 0.99600 0.32600
vt 0.50400 0.32600
vt 0.50400 0.00400
vt 0.99600 0.00400
vt 0.99600 0.32600
vt 0.50400 0.32600
vt 0.50400 0.00400
vt 0.99600 0.00400
vt 0.99600 0.32600
vt 0.50400 0.32600
vt 0.50400 0.00400
vt 0.99600 0.00400
vt 0.99600 0.32600
vt 0.50400 0.32600
vt 0.50400 0.00400
vt 0.99600 0.00400
vt 0.99600 0.32600
vt 0.50400 0.32600
vt 0.50400 0.00400
vt 0.99600 0.00400
vt 0.99600 0.32600
vt 0.50400 0.32600
vt 0.50400 0.00400
vt 0.99600 0.00400
vt 0.99600 0.32600
vt 0.50400 0.32600
vt 0.50400 0.00400
vt 0.99600 0.00400
vt 0.99600 0.32600
vt 0.50400 0.32600
vt 0.50400 0.00400
vt 0.99600 0.00400
vt 0.99600 0.32600
vt 0.50400 0.32600
vt 0.50400 0.00400
vt 0.99600 0.00400
vt 0.99600 0.32600
vt 0.50400 0.32600
vt 0.50400 0.00400
vt 0.99600 0.00400
vt 0.99600 0.32600
vt 0.50400 0.32600
vt 0.50400 0.00400
vt 0.99600 0.00400
vt 0.99600 0.32600
vt 0.50400 0.32600
vt 0.50400 0.00400
vt 0.99600 0.00400
vt 0.99600 0.32600
vt 0.50400 0.32600
vt 0.50400 0.00400
vt 0.99600 0.00400
vt 0.99600 0.32600
vt 0.50400 0.32600
vt 0.50400 0.00400
vt 0.99600 0.00400
vt 0.99600 0.32600
vt 0.50400 0.32600
vt 0.50400 0.00400
vt 0.99600 0.00400
vt 0.99600 0.32600
vt 0.50400 0.32600
vt 0.50400 0.00400
vt 0.99600 0.00400
vt 0.99600 0.32600
vt 0.50400 0.32600
vt 0.50400 0.00400
vt 0.99600 0.00400
vt 0.99600 0.32600
vt 0.50400 0.32600
vt 0.50400 0.00400
vt 0.99600 0.00400
vt 0.99600 0.32600
vt 0.50400 0.32600
vt 0.50400 0.00400
vt 0.99600 0.00400
vt 0.99600 0.32600
vt 0.50400 0.32600
vt 0.50400 0.00400
vt 0.99600 0.00400
vt 0.99600 0.32600
vt 0.50400 0.32600
vt 0.50400 0.00400
vt 0.99600 0.00400
vt 0.99600 0.32600
vt 0.50400 0.32600
vt 0.50400 0.00400
vt 0.99600 0.00400
vt 0.99600 0.32600
vt 0.50400 0.32600
vt 0.50400 0.00400
vt 0.99600 0.00400
vt 0.99600 0.32600
vt 0.50400 0.32600
vt 0.50400 0.00400
vt 0.99600 0.00400
vt 0.99600 0.32600
vt 0.50400 0.32600
vt 0.50400 0.00400
vt 0.99600 0.00400
vt 0.99600 0.32600
vt 0.50400 0.32600
vt 0.50400 0.00400
vt 0.99600 0.00400
vt 0.99600 0.32600
vt 0.50400 0.32600
vt 0.50400 0.00400
vt 0.99600 0.00400
vt 0.99600 0.32600
vt 0.50400 0.32600
vt 0.50400 0.00400
vt 0.99600 0.00400
vt 0.99600 0.32600
vt 0.50400 0.32600
vt 0.50400 0.00400
vt 0.99600 0.00400
vt 0.99600 0.32600
vt 0.50400 0.32600
vt 0.50400 0.00400
vt 0.99600 0.00400
vt 0.99600 0.32600
vt 0.50400 0.32600
vt 0.50400 0.00400
vt 0.99600 0.00400
vt 0.99600 0.32600
vt 0.50400 0.32600
vt 0.00400 0.66900
vt 0.32930 0.66900
vt 0.32930 0.99600
vt 0.00400 0.99600
vt 0.33730 0.66900
vt 0.66270 0.66900
vt 0.66270 0.99600
vt 0.33730 0.99600
vt 0.67070 0.66900
vt 0.99600 0.66900
vt 0.99600 0.99600
vt 0.67070 0.99600
vt 0.00400 0.33400
vt 0.32930 0.33400
vt 0.32930 0.66100
vt 0.00400 0.66100
vt 0.33730 0.33400
vt 0.66270 0.33400
vt 0.66270 0.66100
vt 0.33730 0.66100
vt 0.67070 0.33400
vt 0.99600 0.33400
vt 0.99600 0.66100
vt 0.67070 0.66100
vt 0.00400 0.00400
vt 0.49600 0.00400
vt 0.49600 0.32600
vt 0.00400 0.32600
vt 0.00400 0.00400
vt 0.49600 0.00400
vt 0.49600 0.32600
vt 0.00400 0.32600
vt 0.00400 0.00400
vt 0.49600 0.00400
vt 0.49600 0.32600
vt 0.00400 0.32600
vt 0.00400 0.00400
vt 0.49600 0.00400
vt 0.49600 0.32600
vt 0.00400 0.32600
vt 0.00400 0.00400
vt 0.49600 0.00400
vt 0.49600 0.32600
vt 0.00400 0.32600
vt 0.00400 0.00400
vt 0.49600 0.00400
vt 0.49600 0.32600
vt 0.00400 0.32600
vt 0.00400 0.00400
vt 0.49600 0.00400
vt 0.49600 0.32600
vt 0.00400 0.32600
vt 0.00400 0.00400
vt 0.49600 0.00400
vt 0.49600 0.32600
vt 0.00400 0.32600
vt 0.00400 0.00400
vt 0.49600 0.00400
vt 0.49600 0.32600
vt 0.00400 0.32600
vt 0.00400 0.00400
vt 0.49600 0.00400
vt 0.49600 0.32600
vt 0.00400 0.32600
vt 0.00400 0.00400
vt 0.49600 0.00400
vt 0.49600 0.32600
vt 0.00400 0.32600
vt 0.00400 0.00400
vt 0.49600 0.00400
vt 0.49600 0.32600
vt 0.00400 0.32600
f 4/1 3/2 7/3 8/4
f 2/5 1/6 5/7 6/8
f 1/9 4/10 8/11 5/12
f 3/13 2/14 6/15 7/16
f 5/17 8/18 7/19 6/20
f 1/21 2/22 3/23 4/24
f 12/25 11/26 15/27 16/28
f 10/29 9/30 13/31 14/32
f 9/33 12/34 16/35 13/36
f 11/37 10/38 14/39 15/40
f 13/41 16/42 15/43 14/44
f 9/45 10/46 11/47 12/48
f 20/49 19/50 23/51 24/52
f 18/53 17/54 21/55 22/56
f 17/57 20/58 24/59 21/60
f 19/61 18/62 22/63 23/64
f 21/65 24/66 23/67 22/68
f 17/69 18/70 19/71 20/72
f 28/73 27/74 31/75 32/76
f 26/77 25/78 29/79 30/80
f 25/81 28/82 32/83 29/84
f 27/85 26/86 30/87 31/88
f 29/89 32/90 31/91 30/92
f 25/93 26/94 27/95 28/96
f 36/97 35/98 39/99 40/100
f 34/101 33/102 37/103 38/104
f 33/105 36/106 40/107 37/108
f 35/109 34/110 38/111 39/112
f 37/113 40/114 39/115 38/116
f 33/117 34/118 35/119 36/120
f 44/121 43/122 47/123 48/124
f 42/125 41/126 45/127 46/128
f 41/129 44/130 48/131 45/132
f 43/133 42/134 46/135 47/136
f 45/137 48/138 47/139 46/140
f 41/141 42/142 43/143 44/144
f 52/145 51/146 55/147 56/148
f 50/149 49/150 53/151 54/152
f 49/153 52/154 56/155 53/156
f 51/157 50/158 54/159 55/160
f 53/161 56/162 55/163 54/164
f 49/165 50/166 51/167 52/168
f 60/169 59/170 63/171 64/172
f 58/173 57/174 61/175 62/176
f 57/177 60/178 64/179 61/180
f 59/181 58/182 62/183 63/184
f 61/185 64/186 63/187 62/188
f 57/189 58/190 59/191 60/192
f 68/193 67/194 71/195 72/196
f 66/197 65/198 69/199 70/200
f 65/201 68/202 72/203 69/204
f 67/205 66/206 70/207 71/208
f 69/209 72/210 71/211 70/212
f 65/213 66/214 67/215 68/216
f 76/217 75/218 79/219 80/220
f 74/221 73/222 77/223 78/224
f 73/225 76/226 80/227 77/228
f 75/229 74/230 78/231 79/232
f 77/233 80/234 79/235 78/236
f 73/237 74/238 75/239 76/240
f 84/241 83/242 87/243 88/244
f 82/245 81/246 85/247 86/248
f 81/249 84/250 88/251 85/252
f 83/253 82/254 86/255 87/256
f 85/257 88/258 87/259 86/260
f 81/261 82/262 83/263 84/264
f 92/265 91/266 95/267 96/268
f 90/269 89/270 93/271 94/272
f 89/273 92/274 96/275 93/276
f 91/277 90/278 94/279 95/280
f 93/281 96/282 95/283 94/284
f 89/285 90/286 91/287 92/288
f 100/289 99/290 103/291 104/292
f 98/293 97/294 101/295 102/296
f 97/297 100/298 104/299 101/300
f 99/301 98/302 102/303 103/304
f 101/305 104/306 103/307 102/308
f 97/309 98/310 99/311 100/312
f 108/313 107/314 111/315 112/316
f 106/317 105/318 109/319 110/320
f 105/321 108/322 112/323 109/324
f 107/325 106/326 110/327 111/328
f 109/329 112/330 111/331 110/332
f 105/333 106/334 107/335 108/336
f 116/337 115/338 119/339 120/340
f 114/341 113/342 117/343 118/344
f 113/345 116/346 120/347 117/348
f 115/349 114/350 118/351 119/352
f 117/353 120/354 119/355 118/356
f 113/357 114/358 115/359 116/360
f 124/361 123/362 127/363 128/364
f 122/365 121/366 125/367 126/368
f 121/369 124/370 128/371 125/372
f 123/373 122/374 126/375 127/376
f 125/377 128/378 127/379 126/380
f 121/381 122/382 123/383 124/384
f 132/385 131/386 135/387 136/388
f 130/389 129/390 133/391 134/392
f 129/393 132/394 136/395 133/396
f 131/397 130/398 134/399 135/400
f 133/401 136/402 135/403 134/404
f 129/405 130/406 131/407 132/408
