# The Catalogue -- Parcel - 50, a strapped wooden crate
# One unit is one metre. Y is up. Origin sits on the ground, centred on the footprint.
# UV: front|back|left over right|top|bottom, with a trim strip along the bottom third.
mtllib parcels.mtl
o parcel50
usemtl timber
v -0.27500 0.00000 -0.27500
v 0.27500 0.00000 -0.27500
v 0.27500 0.00000 0.27500
v -0.27500 0.00000 0.27500
v -0.27500 0.48000 -0.27500
v 0.27500 0.48000 -0.27500
v 0.27500 0.48000 0.27500
v -0.27500 0.48000 0.27500
v -0.27900 0.00000 -0.27900
v -0.22900 0.00000 -0.27900
v -0.22900 0.00000 -0.22900
v -0.27900 0.00000 -0.22900
v -0.27900 0.48000 -0.27900
v -0.22900 0.48000 -0.27900
v -0.22900 0.48000 -0.22900
v -0.27900 0.48000 -0.22900
v -0.27900 0.00000 0.22900
v -0.22900 0.00000 0.22900
v -0.22900 0.00000 0.27900
v -0.27900 0.00000 0.27900
v -0.27900 0.48000 0.22900
v -0.22900 0.48000 0.22900
v -0.22900 0.48000 0.27900
v -0.27900 0.48000 0.27900
v 0.22900 0.00000 -0.27900
v 0.27900 0.00000 -0.27900
v 0.27900 0.00000 -0.22900
v 0.22900 0.00000 -0.22900
v 0.22900 0.48000 -0.27900
v 0.27900 0.48000 -0.27900
v 0.27900 0.48000 -0.22900
v 0.22900 0.48000 -0.22900
v 0.22900 0.00000 0.22900
v 0.27900 0.00000 0.22900
v 0.27900 0.00000 0.27900
v 0.22900 0.00000 0.27900
v 0.22900 0.48000 0.22900
v 0.27900 0.48000 0.22900
v 0.27900 0.48000 0.27900
v 0.22900 0.48000 0.27900
v -0.16250 -0.00400 -0.27900
v -0.11250 -0.00400 -0.27900
v -0.11250 -0.00400 0.27900
v -0.16250 -0.00400 0.27900
v -0.16250 0.48400 -0.27900
v -0.11250 0.48400 -0.27900
v -0.11250 0.48400 0.27900
v -0.16250 0.48400 0.27900
v 0.11250 -0.00400 -0.27900
v 0.16250 -0.00400 -0.27900
v 0.16250 -0.00400 0.27900
v 0.11250 -0.00400 0.27900
v 0.11250 0.48400 -0.27900
v 0.16250 0.48400 -0.27900
v 0.16250 0.48400 0.27900
v 0.11250 0.48400 0.27900
vt 0.00400 0.66900
vt 0.32930 0.66900
vt 0.32930 0.99600
vt 0.00400 0.99600
vt 0.33730 0.66900
vt 0.66270 0.66900
vt 0.66270 0.99600
vt 0.33730 0.99600
vt 0.67070 0.66900
vt 0.99600 0.66900
vt 0.99600 0.99600
vt 0.67070 0.99600
vt 0.00400 0.33400
vt 0.32930 0.33400
vt 0.32930 0.66100
vt 0.00400 0.66100
vt 0.33730 0.33400
vt 0.66270 0.33400
vt 0.66270 0.66100
vt 0.33730 0.66100
vt 0.67070 0.33400
vt 0.99600 0.33400
vt 0.99600 0.66100
vt 0.67070 0.66100
vt 0.50400 0.00400
vt 0.99600 0.00400
vt 0.99600 0.32600
vt 0.50400 0.32600
vt 0.50400 0.00400
vt 0.99600 0.00400
vt 0.99600 0.32600
vt 0.50400 0.32600
vt 0.50400 0.00400
vt 0.99600 0.00400
vt 0.99600 0.32600
vt 0.50400 0.32600
vt 0.50400 0.00400
vt 0.99600 0.00400
vt 0.99600 0.32600
vt 0.50400 0.32600
vt 0.50400 0.00400
vt 0.99600 0.00400
vt 0.99600 0.32600
vt 0.50400 0.32600
vt 0.50400 0.00400
vt 0.99600 0.00400
vt 0.99600 0.32600
vt 0.50400 0.32600
vt 0.50400 0.00400
vt 0.99600 0.00400
vt 0.99600 0.32600
vt 0.50400 0.32600
vt 0.50400 0.00400
vt 0.99600 0.00400
vt 0.99600 0.32600
vt 0.50400 0.32600
vt 0.50400 0.00400
vt 0.99600 0.00400
vt 0.99600 0.32600
vt 0.50400 0.32600
vt 0.50400 0.00400
vt 0.99600 0.00400
vt 0.99600 0.32600
vt 0.50400 0.32600
vt 0.50400 0.00400
vt 0.99600 0.00400
vt 0.99600 0.32600
vt 0.50400 0.32600
vt 0.50400 0.00400
vt 0.99600 0.00400
vt 0.99600 0.32600
vt 0.50400 0.32600
vt 0.50400 0.00400
vt 0.99600 0.00400
vt 0.99600 0.32600
vt 0.50400 0.32600
vt 0.50400 0.00400
vt 0.99600 0.00400
vt 0.99600 0.32600
vt 0.50400 0.32600
vt 0.50400 0.00400
vt 0.99600 0.00400
vt 0.99600 0.32600
vt 0.50400 0.32600
vt 0.50400 0.00400
vt 0.99600 0.00400
vt 0.99600 0.32600
vt 0.50400 0.32600
vt 0.50400 0.00400
vt 0.99600 0.00400
vt 0.99600 0.32600
vt 0.50400 0.32600
vt 0.50400 0.00400
vt 0.99600 0.00400
vt 0.99600 0.32600
vt 0.50400 0.32600
vt 0.50400 0.00400
vt 0.99600 0.00400
vt 0.99600 0.32600
vt 0.50400 0.32600
vt 0.50400 0.00400
vt 0.99600 0.00400
vt 0.99600 0.32600
vt 0.50400 0.32600
vt 0.50400 0.00400
vt 0.99600 0.00400
vt 0.99600 0.32600
vt 0.50400 0.32600
vt 0.50400 0.00400
vt 0.99600 0.00400
vt 0.99600 0.32600
vt 0.50400 0.32600
vt 0.50400 0.00400
vt 0.99600 0.00400
vt 0.99600 0.32600
vt 0.50400 0.32600
vt 0.50400 0.00400
vt 0.99600 0.00400
vt 0.99600 0.32600
vt 0.50400 0.32600
vt 0.00400 0.00400
vt 0.49600 0.00400
vt 0.49600 0.32600
vt 0.00400 0.32600
vt 0.00400 0.00400
vt 0.49600 0.00400
vt 0.49600 0.32600
vt 0.00400 0.32600
vt 0.00400 0.00400
vt 0.49600 0.00400
vt 0.49600 0.32600
vt 0.00400 0.32600
vt 0.00400 0.00400
vt 0.49600 0.00400
vt 0.49600 0.32600
vt 0.00400 0.32600
vt 0.00400 0.00400
vt 0.49600 0.00400
vt 0.49600 0.32600
vt 0.00400 0.32600
vt 0.00400 0.00400
vt 0.49600 0.00400
vt 0.49600 0.32600
vt 0.00400 0.32600
vt 0.00400 0.00400
vt 0.49600 0.00400
vt 0.49600 0.32600
vt 0.00400 0.32600
vt 0.00400 0.00400
vt 0.49600 0.00400
vt 0.49600 0.32600
vt 0.00400 0.32600
vt 0.00400 0.00400
vt 0.49600 0.00400
vt 0.49600 0.32600
vt 0.00400 0.32600
vt 0.00400 0.00400
vt 0.49600 0.00400
vt 0.49600 0.32600
vt 0.00400 0.32600
vt 0.00400 0.00400
vt 0.49600 0.00400
vt 0.49600 0.32600
vt 0.00400 0.32600
vt 0.00400 0.00400
vt 0.49600 0.00400
vt 0.49600 0.32600
vt 0.00400 0.32600
f 4/1 3/2 7/3 8/4
f 2/5 1/6 5/7 6/8
f 1/9 4/10 8/11 5/12
f 3/13 2/14 6/15 7/16
f 5/17 8/18 7/19 6/20
f 1/21 2/22 3/23 4/24
f 12/25 11/26 15/27 16/28
f 10/29 9/30 13/31 14/32
f 9/33 12/34 16/35 13/36
f 11/37 10/38 14/39 15/40
f 13/41 16/42 15/43 14/44
f 9/45 10/46 11/47 12/48
f 20/49 19/50 23/51 24/52
f 18/53 17/54 21/55 22/56
f 17/57 20/58 24/59 21/60
f 19/61 18/62 22/63 23/64
f 21/65 24/66 23/67 22/68
f 17/69 18/70 19/71 20/72
f 28/73 27/74 31/75 32/76
f 26/77 25/78 29/79 30/80
f 25/81 28/82 32/83 29/84
f 27/85 26/86 30/87 31/88
f 29/89 32/90 31/91 30/92
f 25/93 26/94 27/95 28/96
f 36/97 35/98 39/99 40/100
f 34/101 33/102 37/103 38/104
f 33/105 36/106 40/107 37/108
f 35/109 34/110 38/111 39/112
f 37/113 40/114 39/115 38/116
f 33/117 34/118 35/119 36/120
f 44/121 43/122 47/123 48/124
f 42/125 41/126 45/127 46/128
f 41/129 44/130 48/131 45/132
f 43/133 42/134 46/135 47/136
f 45/137 48/138 47/139 46/140
f 41/141 42/142 43/143 44/144
f 52/145 51/146 55/147 56/148
f 50/149 49/150 53/151 54/152
f 49/153 52/154 56/155 53/156
f 51/157 50/158 54/159 55/160
f 53/161 56/162 55/163 54/164
f 49/165 50/166 51/167 52/168
